<?xml version="1.0" encoding="UTF-8"?>
<svg xmlns="http://www.w3.org/2000/svg" viewBox="0 0 300 430" width="300" height="430"
     role="img" aria-label="Kyber crystal: Kylo Ren">
  <defs>
    <radialGradient id="crystalGlow" cx="50%" cy="55%" r="50%">
      <stop offset="0%" stop-color="#ffc5bf" stop-opacity="1"/>
      <stop offset="40%" stop-color="#ff3c28" stop-opacity="0.9"/>
      <stop offset="100%" stop-color="#330c08" stop-opacity="0.7"/>
    </radialGradient>
  </defs>

  <!-- Deep-space backdrop -->
  <rect width="300" height="430" fill="#0a0f1a"/>

  <!-- Crystal silhouette -->
  
    <polygon points="150,40 225,115 225,190 165,215 75,200 75,115"
             fill="url(#crystalGlow)" stroke="#ff3c28"
             stroke-width="1.5" stroke-opacity="0.9"/>
    <polygon points="75,200 225,190 210,225 90,230"
             fill="#ff9e94" fill-opacity="0.8"/>
    <polygon points="75,215 225,208 225,305 150,370 75,305"
             fill="url(#crystalGlow)" stroke="#ff3c28"
             stroke-width="1.5" stroke-opacity="0.9"/>
    <path d="M 90,215 L 110,160 L 125,195"
          stroke="#ff9e94" stroke-width="1" fill="none" stroke-opacity="0.85"/>
    <path d="M 215,212 L 195,255 L 175,220"
          stroke="#ff9e94" stroke-width="1" fill="none" stroke-opacity="0.85"/>

  <!-- Functional QR region (scannable) -->
  <rect x="118.5" y="168.5" width="63" height="63" fill="#1a0604" fill-opacity="0.5"/><rect x="118.5" y="168.5" width="3" height="3" fill="#ff9e94"/><rect x="121.5" y="168.5" width="3" height="3" fill="#ff9e94"/><rect x="124.5" y="168.5" width="3" height="3" fill="#ff9e94"/><rect x="127.5" y="168.5" width="3" height="3" fill="#ff9e94"/><rect x="130.5" y="168.5" width="3" height="3" fill="#ff9e94"/><rect x="133.5" y="168.5" width="3" height="3" fill="#ff9e94"/><rect x="136.5" y="168.5" width="3" height="3" fill="#ff9e94"/><rect x="145.5" y="168.5" width="3" height="3" fill="#ff9e94"/><rect x="148.5" y="168.5" width="3" height="3" fill="#ff9e94"/><rect x="160.5" y="168.5" width="3" height="3" fill="#ff9e94"/><rect x="163.5" y="168.5" width="3" height="3" fill="#ff9e94"/><rect x="166.5" y="168.5" width="3" height="3" fill="#ff9e94"/><rect x="169.5" y="168.5" width="3" height="3" fill="#ff9e94"/><rect x="172.5" y="168.5" width="3" height="3" fill="#ff9e94"/><rect x="175.5" y="168.5" width="3" height="3" fill="#ff9e94"/><rect x="178.5" y="168.5" width="3" height="3" fill="#ff9e94"/><rect x="118.5" y="171.5" width="3" height="3" fill="#ff9e94"/><rect x="136.5" y="171.5" width="3" height="3" fill="#ff9e94"/><rect x="148.5" y="171.5" width="3" height="3" fill="#ff9e94"/><rect x="151.5" y="171.5" width="3" height="3" fill="#ff9e94"/><rect x="160.5" y="171.5" width="3" height="3" fill="#ff9e94"/><rect x="178.5" y="171.5" width="3" height="3" fill="#ff9e94"/><rect x="118.5" y="174.5" width="3" height="3" fill="#ff9e94"/><rect x="124.5" y="174.5" width="3" height="3" fill="#ff9e94"/><rect x="127.5" y="174.5" width="3" height="3" fill="#ff9e94"/><rect x="130.5" y="174.5" width="3" height="3" fill="#ff9e94"/><rect x="136.5" y="174.5" width="3" height="3" fill="#ff9e94"/><rect x="160.5" y="174.5" width="3" height="3" fill="#ff9e94"/><rect x="166.5" y="174.5" width="3" height="3" fill="#ff9e94"/><rect x="169.5" y="174.5" width="3" height="3" fill="#ff9e94"/><rect x="172.5" y="174.5" width="3" height="3" fill="#ff9e94"/><rect x="178.5" y="174.5" width="3" height="3" fill="#ff9e94"/><rect x="118.5" y="177.5" width="3" height="3" fill="#ff9e94"/><rect x="124.5" y="177.5" width="3" height="3" fill="#ff9e94"/><rect x="127.5" y="177.5" width="3" height="3" fill="#ff9e94"/><rect x="130.5" y="177.5" width="3" height="3" fill="#ff9e94"/><rect x="136.5" y="177.5" width="3" height="3" fill="#ff9e94"/><rect x="145.5" y="177.5" width="3" height="3" fill="#ff9e94"/><rect x="148.5" y="177.5" width="3" height="3" fill="#ff9e94"/><rect x="160.5" y="177.5" width="3" height="3" fill="#ff9e94"/><rect x="166.5" y="177.5" width="3" height="3" fill="#ff9e94"/><rect x="169.5" y="177.5" width="3" height="3" fill="#ff9e94"/><rect x="172.5" y="177.5" width="3" height="3" fill="#ff9e94"/><rect x="178.5" y="177.5" width="3" height="3" fill="#ff9e94"/><rect x="118.5" y="180.5" width="3" height="3" fill="#ff9e94"/><rect x="124.5" y="180.5" width="3" height="3" fill="#ff9e94"/><rect x="127.5" y="180.5" width="3" height="3" fill="#ff9e94"/><rect x="130.5" y="180.5" width="3" height="3" fill="#ff9e94"/><rect x="136.5" y="180.5" width="3" height="3" fill="#ff9e94"/><rect x="151.5" y="180.5" width="3" height="3" fill="#ff9e94"/><rect x="160.5" y="180.5" width="3" height="3" fill="#ff9e94"/><rect x="166.5" y="180.5" width="3" height="3" fill="#ff9e94"/><rect x="169.5" y="180.5" width="3" height="3" fill="#ff9e94"/><rect x="172.5" y="180.5" width="3" height="3" fill="#ff9e94"/><rect x="178.5" y="180.5" width="3" height="3" fill="#ff9e94"/><rect x="118.5" y="183.5" width="3" height="3" fill="#ff9e94"/><rect x="136.5" y="183.5" width="3" height="3" fill="#ff9e94"/><rect x="160.5" y="183.5" width="3" height="3" fill="#ff9e94"/><rect x="178.5" y="183.5" width="3" height="3" fill="#ff9e94"/><rect x="118.5" y="186.5" width="3" height="3" fill="#ff9e94"/><rect x="121.5" y="186.5" width="3" height="3" fill="#ff9e94"/><rect x="124.5" y="186.5" width="3" height="3" fill="#ff9e94"/><rect x="127.5" y="186.5" width="3" height="3" fill="#ff9e94"/><rect x="130.5" y="186.5" width="3" height="3" fill="#ff9e94"/><rect x="133.5" y="186.5" width="3" height="3" fill="#ff9e94"/><rect x="136.5" y="186.5" width="3" height="3" fill="#ff9e94"/><rect x="160.5" y="186.5" width="3" height="3" fill="#ff9e94"/><rect x="163.5" y="186.5" width="3" height="3" fill="#ff9e94"/><rect x="166.5" y="186.5" width="3" height="3" fill="#ff9e94"/><rect x="169.5" y="186.5" width="3" height="3" fill="#ff9e94"/><rect x="172.5" y="186.5" width="3" height="3" fill="#ff9e94"/><rect x="175.5" y="186.5" width="3" height="3" fill="#ff9e94"/><rect x="178.5" y="186.5" width="3" height="3" fill="#ff9e94"/><rect x="151.5" y="189.5" width="3" height="3" fill="#ff9e94"/><rect x="148.5" y="192.5" width="3" height="3" fill="#ff9e94"/><rect x="151.5" y="192.5" width="3" height="3" fill="#ff9e94"/><rect x="118.5" y="195.5" width="3" height="3" fill="#ff9e94"/><rect x="121.5" y="195.5" width="3" height="3" fill="#ff9e94"/><rect x="136.5" y="195.5" width="3" height="3" fill="#ff9e94"/><rect x="145.5" y="195.5" width="3" height="3" fill="#ff9e94"/><rect x="148.5" y="195.5" width="3" height="3" fill="#ff9e94"/><rect x="151.5" y="195.5" width="3" height="3" fill="#ff9e94"/><rect x="154.5" y="195.5" width="3" height="3" fill="#ff9e94"/><rect x="163.5" y="195.5" width="3" height="3" fill="#ff9e94"/><rect x="175.5" y="195.5" width="3" height="3" fill="#ff9e94"/><rect x="178.5" y="195.5" width="3" height="3" fill="#ff9e94"/><rect x="124.5" y="198.5" width="3" height="3" fill="#ff9e94"/><rect x="127.5" y="198.5" width="3" height="3" fill="#ff9e94"/><rect x="133.5" y="198.5" width="3" height="3" fill="#ff9e94"/><rect x="139.5" y="198.5" width="3" height="3" fill="#ff9e94"/><rect x="142.5" y="198.5" width="3" height="3" fill="#ff9e94"/><rect x="148.5" y="198.5" width="3" height="3" fill="#ff9e94"/><rect x="157.5" y="198.5" width="3" height="3" fill="#ff9e94"/><rect x="160.5" y="198.5" width="3" height="3" fill="#ff9e94"/><rect x="166.5" y="198.5" width="3" height="3" fill="#ff9e94"/><rect x="169.5" y="198.5" width="3" height="3" fill="#ff9e94"/><rect x="172.5" y="198.5" width="3" height="3" fill="#ff9e94"/><rect x="175.5" y="198.5" width="3" height="3" fill="#ff9e94"/><rect x="121.5" y="201.5" width="3" height="3" fill="#ff9e94"/><rect x="127.5" y="201.5" width="3" height="3" fill="#ff9e94"/><rect x="151.5" y="201.5" width="3" height="3" fill="#ff9e94"/><rect x="160.5" y="201.5" width="3" height="3" fill="#ff9e94"/><rect x="166.5" y="201.5" width="3" height="3" fill="#ff9e94"/><rect x="169.5" y="201.5" width="3" height="3" fill="#ff9e94"/><rect x="154.5" y="204.5" width="3" height="3" fill="#ff9e94"/><rect x="160.5" y="204.5" width="3" height="3" fill="#ff9e94"/><rect x="163.5" y="204.5" width="3" height="3" fill="#ff9e94"/><rect x="166.5" y="204.5" width="3" height="3" fill="#ff9e94"/><rect x="175.5" y="204.5" width="3" height="3" fill="#ff9e94"/><rect x="178.5" y="204.5" width="3" height="3" fill="#ff9e94"/><rect x="145.5" y="207.5" width="3" height="3" fill="#ff9e94"/><rect x="157.5" y="207.5" width="3" height="3" fill="#ff9e94"/><rect x="160.5" y="207.5" width="3" height="3" fill="#ff9e94"/><rect x="166.5" y="207.5" width="3" height="3" fill="#ff9e94"/><rect x="178.5" y="207.5" width="3" height="3" fill="#ff9e94"/><rect x="118.5" y="210.5" width="3" height="3" fill="#ff9e94"/><rect x="121.5" y="210.5" width="3" height="3" fill="#ff9e94"/><rect x="124.5" y="210.5" width="3" height="3" fill="#ff9e94"/><rect x="127.5" y="210.5" width="3" height="3" fill="#ff9e94"/><rect x="130.5" y="210.5" width="3" height="3" fill="#ff9e94"/><rect x="133.5" y="210.5" width="3" height="3" fill="#ff9e94"/><rect x="136.5" y="210.5" width="3" height="3" fill="#ff9e94"/><rect x="148.5" y="210.5" width="3" height="3" fill="#ff9e94"/><rect x="151.5" y="210.5" width="3" height="3" fill="#ff9e94"/><rect x="154.5" y="210.5" width="3" height="3" fill="#ff9e94"/><rect x="163.5" y="210.5" width="3" height="3" fill="#ff9e94"/><rect x="166.5" y="210.5" width="3" height="3" fill="#ff9e94"/><rect x="178.5" y="210.5" width="3" height="3" fill="#ff9e94"/><rect x="118.5" y="213.5" width="3" height="3" fill="#ff9e94"/><rect x="136.5" y="213.5" width="3" height="3" fill="#ff9e94"/><rect x="151.5" y="213.5" width="3" height="3" fill="#ff9e94"/><rect x="157.5" y="213.5" width="3" height="3" fill="#ff9e94"/><rect x="172.5" y="213.5" width="3" height="3" fill="#ff9e94"/><rect x="118.5" y="216.5" width="3" height="3" fill="#ff9e94"/><rect x="124.5" y="216.5" width="3" height="3" fill="#ff9e94"/><rect x="127.5" y="216.5" width="3" height="3" fill="#ff9e94"/><rect x="130.5" y="216.5" width="3" height="3" fill="#ff9e94"/><rect x="136.5" y="216.5" width="3" height="3" fill="#ff9e94"/><rect x="145.5" y="216.5" width="3" height="3" fill="#ff9e94"/><rect x="163.5" y="216.5" width="3" height="3" fill="#ff9e94"/><rect x="169.5" y="216.5" width="3" height="3" fill="#ff9e94"/><rect x="178.5" y="216.5" width="3" height="3" fill="#ff9e94"/><rect x="118.5" y="219.5" width="3" height="3" fill="#ff9e94"/><rect x="124.5" y="219.5" width="3" height="3" fill="#ff9e94"/><rect x="127.5" y="219.5" width="3" height="3" fill="#ff9e94"/><rect x="130.5" y="219.5" width="3" height="3" fill="#ff9e94"/><rect x="136.5" y="219.5" width="3" height="3" fill="#ff9e94"/><rect x="154.5" y="219.5" width="3" height="3" fill="#ff9e94"/><rect x="160.5" y="219.5" width="3" height="3" fill="#ff9e94"/><rect x="166.5" y="219.5" width="3" height="3" fill="#ff9e94"/><rect x="178.5" y="219.5" width="3" height="3" fill="#ff9e94"/><rect x="118.5" y="222.5" width="3" height="3" fill="#ff9e94"/><rect x="124.5" y="222.5" width="3" height="3" fill="#ff9e94"/><rect x="127.5" y="222.5" width="3" height="3" fill="#ff9e94"/><rect x="130.5" y="222.5" width="3" height="3" fill="#ff9e94"/><rect x="136.5" y="222.5" width="3" height="3" fill="#ff9e94"/><rect x="148.5" y="222.5" width="3" height="3" fill="#ff9e94"/><rect x="154.5" y="222.5" width="3" height="3" fill="#ff9e94"/><rect x="160.5" y="222.5" width="3" height="3" fill="#ff9e94"/><rect x="163.5" y="222.5" width="3" height="3" fill="#ff9e94"/><rect x="166.5" y="222.5" width="3" height="3" fill="#ff9e94"/><rect x="175.5" y="222.5" width="3" height="3" fill="#ff9e94"/><rect x="118.5" y="225.5" width="3" height="3" fill="#ff9e94"/><rect x="136.5" y="225.5" width="3" height="3" fill="#ff9e94"/><rect x="145.5" y="225.5" width="3" height="3" fill="#ff9e94"/><rect x="157.5" y="225.5" width="3" height="3" fill="#ff9e94"/><rect x="160.5" y="225.5" width="3" height="3" fill="#ff9e94"/><rect x="163.5" y="225.5" width="3" height="3" fill="#ff9e94"/><rect x="172.5" y="225.5" width="3" height="3" fill="#ff9e94"/><rect x="175.5" y="225.5" width="3" height="3" fill="#ff9e94"/><rect x="118.5" y="228.5" width="3" height="3" fill="#ff9e94"/><rect x="121.5" y="228.5" width="3" height="3" fill="#ff9e94"/><rect x="124.5" y="228.5" width="3" height="3" fill="#ff9e94"/><rect x="127.5" y="228.5" width="3" height="3" fill="#ff9e94"/><rect x="130.5" y="228.5" width="3" height="3" fill="#ff9e94"/><rect x="133.5" y="228.5" width="3" height="3" fill="#ff9e94"/><rect x="136.5" y="228.5" width="3" height="3" fill="#ff9e94"/><rect x="148.5" y="228.5" width="3" height="3" fill="#ff9e94"/><rect x="151.5" y="228.5" width="3" height="3" fill="#ff9e94"/><rect x="154.5" y="228.5" width="3" height="3" fill="#ff9e94"/><rect x="157.5" y="228.5" width="3" height="3" fill="#ff9e94"/><rect x="160.5" y="228.5" width="3" height="3" fill="#ff9e94"/><rect x="163.5" y="228.5" width="3" height="3" fill="#ff9e94"/><rect x="169.5" y="228.5" width="3" height="3" fill="#ff9e94"/><rect x="175.5" y="228.5" width="3" height="3" fill="#ff9e94"/>

  <!-- Pearlescent top shimmer -->
  <ellipse cx="150" cy="90" rx="35" ry="8"
           fill="#e8f5ff" fill-opacity="0.2"/>

  <!-- Name / glyph label strip -->
  <text x="150" y="405" text-anchor="middle" font-family="ui-monospace, monospace"
        font-size="10" fill="#ff8a7e" fill-opacity="0.9">
    The Cracked Heir
  </text>
  <text x="150" y="422" text-anchor="middle" font-family="ui-monospace, monospace"
        font-size="8" fill="#ff7769" fill-opacity="0.7">
    SIT.[config-payload]
  </text>
</svg>
