<?xml version="1.0" encoding="UTF-8"?>
<svg xmlns="http://www.w3.org/2000/svg" viewBox="0 0 300 430" width="300" height="430"
     role="img" aria-label="Kyber crystal: Darksaber">
  <defs>
    <radialGradient id="crystalGlow" cx="50%" cy="55%" r="50%">
      <stop offset="0%" stop-color="#bcbcbd" stop-opacity="1"/>
      <stop offset="40%" stop-color="#1e1e22" stop-opacity="0.9"/>
      <stop offset="100%" stop-color="#060607" stop-opacity="0.7"/>
    </radialGradient>
  </defs>

  <!-- Deep-space backdrop -->
  <rect width="300" height="430" fill="#0a0f1a"/>

  <!-- Crystal silhouette -->
  
    <defs>
      <linearGradient id="darkGrad" x1="0" y1="0" x2="0" y2="1">
        <stop offset="0%" stop-color="#2a2a2a"/>
        <stop offset="50%" stop-color="#0a0a0a"/>
        <stop offset="100%" stop-color="#1a1a1a"/>
      </linearGradient>
    </defs>
    <polygon points="150,30 205,100 150,200 95,100"
             fill="url(#darkGrad)" stroke="#9098a8"
             stroke-width="1.3" stroke-opacity="0.8"/>
    <polygon points="150,200 205,290 150,380 95,290"
             fill="url(#darkGrad)" stroke="#9098a8"
             stroke-width="1.3" stroke-opacity="0.8"/>
    <line x1="150" y1="30" x2="150" y2="380"
          stroke="#d0d8e8" stroke-width="0.5" stroke-opacity="0.4"/>

  <!-- Functional QR region (scannable) -->
  <rect x="118.5" y="168.5" width="63" height="63" fill="#030303" fill-opacity="0.5"/><rect x="118.5" y="168.5" width="3" height="3" fill="#8f8f91"/><rect x="121.5" y="168.5" width="3" height="3" fill="#8f8f91"/><rect x="124.5" y="168.5" width="3" height="3" fill="#8f8f91"/><rect x="127.5" y="168.5" width="3" height="3" fill="#8f8f91"/><rect x="130.5" y="168.5" width="3" height="3" fill="#8f8f91"/><rect x="133.5" y="168.5" width="3" height="3" fill="#8f8f91"/><rect x="136.5" y="168.5" width="3" height="3" fill="#8f8f91"/><rect x="145.5" y="168.5" width="3" height="3" fill="#8f8f91"/><rect x="148.5" y="168.5" width="3" height="3" fill="#8f8f91"/><rect x="160.5" y="168.5" width="3" height="3" fill="#8f8f91"/><rect x="163.5" y="168.5" width="3" height="3" fill="#8f8f91"/><rect x="166.5" y="168.5" width="3" height="3" fill="#8f8f91"/><rect x="169.5" y="168.5" width="3" height="3" fill="#8f8f91"/><rect x="172.5" y="168.5" width="3" height="3" fill="#8f8f91"/><rect x="175.5" y="168.5" width="3" height="3" fill="#8f8f91"/><rect x="178.5" y="168.5" width="3" height="3" fill="#8f8f91"/><rect x="118.5" y="171.5" width="3" height="3" fill="#8f8f91"/><rect x="136.5" y="171.5" width="3" height="3" fill="#8f8f91"/><rect x="160.5" y="171.5" width="3" height="3" fill="#8f8f91"/><rect x="178.5" y="171.5" width="3" height="3" fill="#8f8f91"/><rect x="118.5" y="174.5" width="3" height="3" fill="#8f8f91"/><rect x="124.5" y="174.5" width="3" height="3" fill="#8f8f91"/><rect x="127.5" y="174.5" width="3" height="3" fill="#8f8f91"/><rect x="130.5" y="174.5" width="3" height="3" fill="#8f8f91"/><rect x="136.5" y="174.5" width="3" height="3" fill="#8f8f91"/><rect x="160.5" y="174.5" width="3" height="3" fill="#8f8f91"/><rect x="166.5" y="174.5" width="3" height="3" fill="#8f8f91"/><rect x="169.5" y="174.5" width="3" height="3" fill="#8f8f91"/><rect x="172.5" y="174.5" width="3" height="3" fill="#8f8f91"/><rect x="178.5" y="174.5" width="3" height="3" fill="#8f8f91"/><rect x="118.5" y="177.5" width="3" height="3" fill="#8f8f91"/><rect x="124.5" y="177.5" width="3" height="3" fill="#8f8f91"/><rect x="127.5" y="177.5" width="3" height="3" fill="#8f8f91"/><rect x="130.5" y="177.5" width="3" height="3" fill="#8f8f91"/><rect x="136.5" y="177.5" width="3" height="3" fill="#8f8f91"/><rect x="145.5" y="177.5" width="3" height="3" fill="#8f8f91"/><rect x="148.5" y="177.5" width="3" height="3" fill="#8f8f91"/><rect x="160.5" y="177.5" width="3" height="3" fill="#8f8f91"/><rect x="166.5" y="177.5" width="3" height="3" fill="#8f8f91"/><rect x="169.5" y="177.5" width="3" height="3" fill="#8f8f91"/><rect x="172.5" y="177.5" width="3" height="3" fill="#8f8f91"/><rect x="178.5" y="177.5" width="3" height="3" fill="#8f8f91"/><rect x="118.5" y="180.5" width="3" height="3" fill="#8f8f91"/><rect x="124.5" y="180.5" width="3" height="3" fill="#8f8f91"/><rect x="127.5" y="180.5" width="3" height="3" fill="#8f8f91"/><rect x="130.5" y="180.5" width="3" height="3" fill="#8f8f91"/><rect x="136.5" y="180.5" width="3" height="3" fill="#8f8f91"/><rect x="148.5" y="180.5" width="3" height="3" fill="#8f8f91"/><rect x="160.5" y="180.5" width="3" height="3" fill="#8f8f91"/><rect x="166.5" y="180.5" width="3" height="3" fill="#8f8f91"/><rect x="169.5" y="180.5" width="3" height="3" fill="#8f8f91"/><rect x="172.5" y="180.5" width="3" height="3" fill="#8f8f91"/><rect x="178.5" y="180.5" width="3" height="3" fill="#8f8f91"/><rect x="118.5" y="183.5" width="3" height="3" fill="#8f8f91"/><rect x="136.5" y="183.5" width="3" height="3" fill="#8f8f91"/><rect x="160.5" y="183.5" width="3" height="3" fill="#8f8f91"/><rect x="178.5" y="183.5" width="3" height="3" fill="#8f8f91"/><rect x="118.5" y="186.5" width="3" height="3" fill="#8f8f91"/><rect x="121.5" y="186.5" width="3" height="3" fill="#8f8f91"/><rect x="124.5" y="186.5" width="3" height="3" fill="#8f8f91"/><rect x="127.5" y="186.5" width="3" height="3" fill="#8f8f91"/><rect x="130.5" y="186.5" width="3" height="3" fill="#8f8f91"/><rect x="133.5" y="186.5" width="3" height="3" fill="#8f8f91"/><rect x="136.5" y="186.5" width="3" height="3" fill="#8f8f91"/><rect x="148.5" y="186.5" width="3" height="3" fill="#8f8f91"/><rect x="160.5" y="186.5" width="3" height="3" fill="#8f8f91"/><rect x="163.5" y="186.5" width="3" height="3" fill="#8f8f91"/><rect x="166.5" y="186.5" width="3" height="3" fill="#8f8f91"/><rect x="169.5" y="186.5" width="3" height="3" fill="#8f8f91"/><rect x="172.5" y="186.5" width="3" height="3" fill="#8f8f91"/><rect x="175.5" y="186.5" width="3" height="3" fill="#8f8f91"/><rect x="178.5" y="186.5" width="3" height="3" fill="#8f8f91"/><rect x="145.5" y="189.5" width="3" height="3" fill="#8f8f91"/><rect x="151.5" y="189.5" width="3" height="3" fill="#8f8f91"/><rect x="121.5" y="195.5" width="3" height="3" fill="#8f8f91"/><rect x="127.5" y="195.5" width="3" height="3" fill="#8f8f91"/><rect x="130.5" y="195.5" width="3" height="3" fill="#8f8f91"/><rect x="136.5" y="195.5" width="3" height="3" fill="#8f8f91"/><rect x="145.5" y="195.5" width="3" height="3" fill="#8f8f91"/><rect x="148.5" y="195.5" width="3" height="3" fill="#8f8f91"/><rect x="151.5" y="195.5" width="3" height="3" fill="#8f8f91"/><rect x="154.5" y="195.5" width="3" height="3" fill="#8f8f91"/><rect x="157.5" y="195.5" width="3" height="3" fill="#8f8f91"/><rect x="169.5" y="195.5" width="3" height="3" fill="#8f8f91"/><rect x="172.5" y="195.5" width="3" height="3" fill="#8f8f91"/><rect x="145.5" y="198.5" width="3" height="3" fill="#8f8f91"/><rect x="148.5" y="198.5" width="3" height="3" fill="#8f8f91"/><rect x="151.5" y="198.5" width="3" height="3" fill="#8f8f91"/><rect x="154.5" y="198.5" width="3" height="3" fill="#8f8f91"/><rect x="160.5" y="198.5" width="3" height="3" fill="#8f8f91"/><rect x="163.5" y="198.5" width="3" height="3" fill="#8f8f91"/><rect x="169.5" y="198.5" width="3" height="3" fill="#8f8f91"/><rect x="175.5" y="198.5" width="3" height="3" fill="#8f8f91"/><rect x="178.5" y="198.5" width="3" height="3" fill="#8f8f91"/><rect x="118.5" y="201.5" width="3" height="3" fill="#8f8f91"/><rect x="121.5" y="201.5" width="3" height="3" fill="#8f8f91"/><rect x="124.5" y="201.5" width="3" height="3" fill="#8f8f91"/><rect x="127.5" y="201.5" width="3" height="3" fill="#8f8f91"/><rect x="133.5" y="201.5" width="3" height="3" fill="#8f8f91"/><rect x="139.5" y="201.5" width="3" height="3" fill="#8f8f91"/><rect x="145.5" y="201.5" width="3" height="3" fill="#8f8f91"/><rect x="151.5" y="201.5" width="3" height="3" fill="#8f8f91"/><rect x="169.5" y="201.5" width="3" height="3" fill="#8f8f91"/><rect x="175.5" y="201.5" width="3" height="3" fill="#8f8f91"/><rect x="178.5" y="201.5" width="3" height="3" fill="#8f8f91"/><rect x="160.5" y="204.5" width="3" height="3" fill="#8f8f91"/><rect x="163.5" y="204.5" width="3" height="3" fill="#8f8f91"/><rect x="172.5" y="204.5" width="3" height="3" fill="#8f8f91"/><rect x="178.5" y="204.5" width="3" height="3" fill="#8f8f91"/><rect x="169.5" y="207.5" width="3" height="3" fill="#8f8f91"/><rect x="172.5" y="207.5" width="3" height="3" fill="#8f8f91"/><rect x="178.5" y="207.5" width="3" height="3" fill="#8f8f91"/><rect x="118.5" y="210.5" width="3" height="3" fill="#8f8f91"/><rect x="121.5" y="210.5" width="3" height="3" fill="#8f8f91"/><rect x="124.5" y="210.5" width="3" height="3" fill="#8f8f91"/><rect x="127.5" y="210.5" width="3" height="3" fill="#8f8f91"/><rect x="130.5" y="210.5" width="3" height="3" fill="#8f8f91"/><rect x="133.5" y="210.5" width="3" height="3" fill="#8f8f91"/><rect x="136.5" y="210.5" width="3" height="3" fill="#8f8f91"/><rect x="151.5" y="210.5" width="3" height="3" fill="#8f8f91"/><rect x="163.5" y="210.5" width="3" height="3" fill="#8f8f91"/><rect x="166.5" y="210.5" width="3" height="3" fill="#8f8f91"/><rect x="172.5" y="210.5" width="3" height="3" fill="#8f8f91"/><rect x="175.5" y="210.5" width="3" height="3" fill="#8f8f91"/><rect x="118.5" y="213.5" width="3" height="3" fill="#8f8f91"/><rect x="136.5" y="213.5" width="3" height="3" fill="#8f8f91"/><rect x="151.5" y="213.5" width="3" height="3" fill="#8f8f91"/><rect x="154.5" y="213.5" width="3" height="3" fill="#8f8f91"/><rect x="163.5" y="213.5" width="3" height="3" fill="#8f8f91"/><rect x="172.5" y="213.5" width="3" height="3" fill="#8f8f91"/><rect x="118.5" y="216.5" width="3" height="3" fill="#8f8f91"/><rect x="124.5" y="216.5" width="3" height="3" fill="#8f8f91"/><rect x="127.5" y="216.5" width="3" height="3" fill="#8f8f91"/><rect x="130.5" y="216.5" width="3" height="3" fill="#8f8f91"/><rect x="136.5" y="216.5" width="3" height="3" fill="#8f8f91"/><rect x="148.5" y="216.5" width="3" height="3" fill="#8f8f91"/><rect x="151.5" y="216.5" width="3" height="3" fill="#8f8f91"/><rect x="154.5" y="216.5" width="3" height="3" fill="#8f8f91"/><rect x="157.5" y="216.5" width="3" height="3" fill="#8f8f91"/><rect x="163.5" y="216.5" width="3" height="3" fill="#8f8f91"/><rect x="169.5" y="216.5" width="3" height="3" fill="#8f8f91"/><rect x="118.5" y="219.5" width="3" height="3" fill="#8f8f91"/><rect x="124.5" y="219.5" width="3" height="3" fill="#8f8f91"/><rect x="127.5" y="219.5" width="3" height="3" fill="#8f8f91"/><rect x="130.5" y="219.5" width="3" height="3" fill="#8f8f91"/><rect x="136.5" y="219.5" width="3" height="3" fill="#8f8f91"/><rect x="157.5" y="219.5" width="3" height="3" fill="#8f8f91"/><rect x="160.5" y="219.5" width="3" height="3" fill="#8f8f91"/><rect x="166.5" y="219.5" width="3" height="3" fill="#8f8f91"/><rect x="172.5" y="219.5" width="3" height="3" fill="#8f8f91"/><rect x="178.5" y="219.5" width="3" height="3" fill="#8f8f91"/><rect x="118.5" y="222.5" width="3" height="3" fill="#8f8f91"/><rect x="124.5" y="222.5" width="3" height="3" fill="#8f8f91"/><rect x="127.5" y="222.5" width="3" height="3" fill="#8f8f91"/><rect x="130.5" y="222.5" width="3" height="3" fill="#8f8f91"/><rect x="136.5" y="222.5" width="3" height="3" fill="#8f8f91"/><rect x="157.5" y="222.5" width="3" height="3" fill="#8f8f91"/><rect x="169.5" y="222.5" width="3" height="3" fill="#8f8f91"/><rect x="172.5" y="222.5" width="3" height="3" fill="#8f8f91"/><rect x="118.5" y="225.5" width="3" height="3" fill="#8f8f91"/><rect x="136.5" y="225.5" width="3" height="3" fill="#8f8f91"/><rect x="145.5" y="225.5" width="3" height="3" fill="#8f8f91"/><rect x="148.5" y="225.5" width="3" height="3" fill="#8f8f91"/><rect x="157.5" y="225.5" width="3" height="3" fill="#8f8f91"/><rect x="169.5" y="225.5" width="3" height="3" fill="#8f8f91"/><rect x="118.5" y="228.5" width="3" height="3" fill="#8f8f91"/><rect x="121.5" y="228.5" width="3" height="3" fill="#8f8f91"/><rect x="124.5" y="228.5" width="3" height="3" fill="#8f8f91"/><rect x="127.5" y="228.5" width="3" height="3" fill="#8f8f91"/><rect x="130.5" y="228.5" width="3" height="3" fill="#8f8f91"/><rect x="133.5" y="228.5" width="3" height="3" fill="#8f8f91"/><rect x="136.5" y="228.5" width="3" height="3" fill="#8f8f91"/><rect x="145.5" y="228.5" width="3" height="3" fill="#8f8f91"/><rect x="151.5" y="228.5" width="3" height="3" fill="#8f8f91"/><rect x="166.5" y="228.5" width="3" height="3" fill="#8f8f91"/>

  <!-- Pearlescent top shimmer -->
  <ellipse cx="150" cy="90" rx="35" ry="8"
           fill="#e8f5ff" fill-opacity="0.2"/>

  <!-- Name / glyph label strip -->
  <text x="150" y="405" text-anchor="middle" font-family="ui-monospace, monospace"
        font-size="10" fill="#78787a" fill-opacity="0.9">
    Mand'alor's Oath
  </text>
  <text x="150" y="422" text-anchor="middle" font-family="ui-monospace, monospace"
        font-size="8" fill="#626264" fill-opacity="0.7">
    DRK.[config-payload]
  </text>
</svg>
