<?xml version="1.0" encoding="UTF-8"?>
<svg xmlns="http://www.w3.org/2000/svg" viewBox="0 0 300 430" width="300" height="430"
     role="img" aria-label="Kyber crystal: Obi-Wan (Prequel)">
  <defs>
    <radialGradient id="crystalGlow" cx="50%" cy="55%" r="50%">
      <stop offset="0%" stop-color="#d1e9ff" stop-opacity="1"/>
      <stop offset="40%" stop-color="#64b4ff" stop-opacity="0.9"/>
      <stop offset="100%" stop-color="#142433" stop-opacity="0.7"/>
    </radialGradient>
  </defs>

  <!-- Deep-space backdrop -->
  <rect width="300" height="430" fill="#0a0f1a"/>

  <!-- Crystal silhouette -->
  
    <polygon points="150,40 225,115 225,305 150,370 75,305 75,115"
             fill="url(#crystalGlow)" stroke="#83c3ff"
             stroke-width="1.2" stroke-opacity="0.85"/>
    <line x1="150" y1="40" x2="150" y2="370"
          stroke="#b2daff"
          stroke-width="0.4" stroke-opacity="0.4"/>
    <line x1="75" y1="115" x2="225" y2="305"
          stroke="#a2d2ff"
          stroke-width="0.3" stroke-opacity="0.3"/>
    <line x1="225" y1="115" x2="75" y2="305"
          stroke="#a2d2ff"
          stroke-width="0.3" stroke-opacity="0.3"/>

  <!-- Functional QR region (scannable) -->
  <rect x="118.5" y="168.5" width="63" height="63" fill="#0a121a" fill-opacity="0.5"/><rect x="118.5" y="168.5" width="3" height="3" fill="#b2daff"/><rect x="121.5" y="168.5" width="3" height="3" fill="#b2daff"/><rect x="124.5" y="168.5" width="3" height="3" fill="#b2daff"/><rect x="127.5" y="168.5" width="3" height="3" fill="#b2daff"/><rect x="130.5" y="168.5" width="3" height="3" fill="#b2daff"/><rect x="133.5" y="168.5" width="3" height="3" fill="#b2daff"/><rect x="136.5" y="168.5" width="3" height="3" fill="#b2daff"/><rect x="145.5" y="168.5" width="3" height="3" fill="#b2daff"/><rect x="148.5" y="168.5" width="3" height="3" fill="#b2daff"/><rect x="160.5" y="168.5" width="3" height="3" fill="#b2daff"/><rect x="163.5" y="168.5" width="3" height="3" fill="#b2daff"/><rect x="166.5" y="168.5" width="3" height="3" fill="#b2daff"/><rect x="169.5" y="168.5" width="3" height="3" fill="#b2daff"/><rect x="172.5" y="168.5" width="3" height="3" fill="#b2daff"/><rect x="175.5" y="168.5" width="3" height="3" fill="#b2daff"/><rect x="178.5" y="168.5" width="3" height="3" fill="#b2daff"/><rect x="118.5" y="171.5" width="3" height="3" fill="#b2daff"/><rect x="136.5" y="171.5" width="3" height="3" fill="#b2daff"/><rect x="148.5" y="171.5" width="3" height="3" fill="#b2daff"/><rect x="151.5" y="171.5" width="3" height="3" fill="#b2daff"/><rect x="160.5" y="171.5" width="3" height="3" fill="#b2daff"/><rect x="178.5" y="171.5" width="3" height="3" fill="#b2daff"/><rect x="118.5" y="174.5" width="3" height="3" fill="#b2daff"/><rect x="124.5" y="174.5" width="3" height="3" fill="#b2daff"/><rect x="127.5" y="174.5" width="3" height="3" fill="#b2daff"/><rect x="130.5" y="174.5" width="3" height="3" fill="#b2daff"/><rect x="136.5" y="174.5" width="3" height="3" fill="#b2daff"/><rect x="145.5" y="174.5" width="3" height="3" fill="#b2daff"/><rect x="160.5" y="174.5" width="3" height="3" fill="#b2daff"/><rect x="166.5" y="174.5" width="3" height="3" fill="#b2daff"/><rect x="169.5" y="174.5" width="3" height="3" fill="#b2daff"/><rect x="172.5" y="174.5" width="3" height="3" fill="#b2daff"/><rect x="178.5" y="174.5" width="3" height="3" fill="#b2daff"/><rect x="118.5" y="177.5" width="3" height="3" fill="#b2daff"/><rect x="124.5" y="177.5" width="3" height="3" fill="#b2daff"/><rect x="127.5" y="177.5" width="3" height="3" fill="#b2daff"/><rect x="130.5" y="177.5" width="3" height="3" fill="#b2daff"/><rect x="136.5" y="177.5" width="3" height="3" fill="#b2daff"/><rect x="148.5" y="177.5" width="3" height="3" fill="#b2daff"/><rect x="160.5" y="177.5" width="3" height="3" fill="#b2daff"/><rect x="166.5" y="177.5" width="3" height="3" fill="#b2daff"/><rect x="169.5" y="177.5" width="3" height="3" fill="#b2daff"/><rect x="172.5" y="177.5" width="3" height="3" fill="#b2daff"/><rect x="178.5" y="177.5" width="3" height="3" fill="#b2daff"/><rect x="118.5" y="180.5" width="3" height="3" fill="#b2daff"/><rect x="124.5" y="180.5" width="3" height="3" fill="#b2daff"/><rect x="127.5" y="180.5" width="3" height="3" fill="#b2daff"/><rect x="130.5" y="180.5" width="3" height="3" fill="#b2daff"/><rect x="136.5" y="180.5" width="3" height="3" fill="#b2daff"/><rect x="160.5" y="180.5" width="3" height="3" fill="#b2daff"/><rect x="166.5" y="180.5" width="3" height="3" fill="#b2daff"/><rect x="169.5" y="180.5" width="3" height="3" fill="#b2daff"/><rect x="172.5" y="180.5" width="3" height="3" fill="#b2daff"/><rect x="178.5" y="180.5" width="3" height="3" fill="#b2daff"/><rect x="118.5" y="183.5" width="3" height="3" fill="#b2daff"/><rect x="136.5" y="183.5" width="3" height="3" fill="#b2daff"/><rect x="160.5" y="183.5" width="3" height="3" fill="#b2daff"/><rect x="178.5" y="183.5" width="3" height="3" fill="#b2daff"/><rect x="118.5" y="186.5" width="3" height="3" fill="#b2daff"/><rect x="121.5" y="186.5" width="3" height="3" fill="#b2daff"/><rect x="124.5" y="186.5" width="3" height="3" fill="#b2daff"/><rect x="127.5" y="186.5" width="3" height="3" fill="#b2daff"/><rect x="130.5" y="186.5" width="3" height="3" fill="#b2daff"/><rect x="133.5" y="186.5" width="3" height="3" fill="#b2daff"/><rect x="136.5" y="186.5" width="3" height="3" fill="#b2daff"/><rect x="148.5" y="186.5" width="3" height="3" fill="#b2daff"/><rect x="151.5" y="186.5" width="3" height="3" fill="#b2daff"/><rect x="160.5" y="186.5" width="3" height="3" fill="#b2daff"/><rect x="163.5" y="186.5" width="3" height="3" fill="#b2daff"/><rect x="166.5" y="186.5" width="3" height="3" fill="#b2daff"/><rect x="169.5" y="186.5" width="3" height="3" fill="#b2daff"/><rect x="172.5" y="186.5" width="3" height="3" fill="#b2daff"/><rect x="175.5" y="186.5" width="3" height="3" fill="#b2daff"/><rect x="178.5" y="186.5" width="3" height="3" fill="#b2daff"/><rect x="145.5" y="192.5" width="3" height="3" fill="#b2daff"/><rect x="148.5" y="192.5" width="3" height="3" fill="#b2daff"/><rect x="151.5" y="192.5" width="3" height="3" fill="#b2daff"/><rect x="124.5" y="195.5" width="3" height="3" fill="#b2daff"/><rect x="127.5" y="195.5" width="3" height="3" fill="#b2daff"/><rect x="130.5" y="195.5" width="3" height="3" fill="#b2daff"/><rect x="139.5" y="195.5" width="3" height="3" fill="#b2daff"/><rect x="142.5" y="195.5" width="3" height="3" fill="#b2daff"/><rect x="145.5" y="195.5" width="3" height="3" fill="#b2daff"/><rect x="154.5" y="195.5" width="3" height="3" fill="#b2daff"/><rect x="157.5" y="195.5" width="3" height="3" fill="#b2daff"/><rect x="160.5" y="195.5" width="3" height="3" fill="#b2daff"/><rect x="163.5" y="195.5" width="3" height="3" fill="#b2daff"/><rect x="166.5" y="195.5" width="3" height="3" fill="#b2daff"/><rect x="169.5" y="195.5" width="3" height="3" fill="#b2daff"/><rect x="172.5" y="195.5" width="3" height="3" fill="#b2daff"/><rect x="178.5" y="195.5" width="3" height="3" fill="#b2daff"/><rect x="121.5" y="198.5" width="3" height="3" fill="#b2daff"/><rect x="130.5" y="198.5" width="3" height="3" fill="#b2daff"/><rect x="133.5" y="198.5" width="3" height="3" fill="#b2daff"/><rect x="136.5" y="198.5" width="3" height="3" fill="#b2daff"/><rect x="145.5" y="198.5" width="3" height="3" fill="#b2daff"/><rect x="151.5" y="198.5" width="3" height="3" fill="#b2daff"/><rect x="163.5" y="198.5" width="3" height="3" fill="#b2daff"/><rect x="166.5" y="198.5" width="3" height="3" fill="#b2daff"/><rect x="169.5" y="198.5" width="3" height="3" fill="#b2daff"/><rect x="172.5" y="198.5" width="3" height="3" fill="#b2daff"/><rect x="178.5" y="198.5" width="3" height="3" fill="#b2daff"/><rect x="118.5" y="201.5" width="3" height="3" fill="#b2daff"/><rect x="124.5" y="201.5" width="3" height="3" fill="#b2daff"/><rect x="127.5" y="201.5" width="3" height="3" fill="#b2daff"/><rect x="130.5" y="201.5" width="3" height="3" fill="#b2daff"/><rect x="136.5" y="201.5" width="3" height="3" fill="#b2daff"/><rect x="139.5" y="201.5" width="3" height="3" fill="#b2daff"/><rect x="145.5" y="201.5" width="3" height="3" fill="#b2daff"/><rect x="166.5" y="201.5" width="3" height="3" fill="#b2daff"/><rect x="169.5" y="201.5" width="3" height="3" fill="#b2daff"/><rect x="175.5" y="201.5" width="3" height="3" fill="#b2daff"/><rect x="178.5" y="201.5" width="3" height="3" fill="#b2daff"/><rect x="145.5" y="204.5" width="3" height="3" fill="#b2daff"/><rect x="151.5" y="204.5" width="3" height="3" fill="#b2daff"/><rect x="163.5" y="204.5" width="3" height="3" fill="#b2daff"/><rect x="166.5" y="204.5" width="3" height="3" fill="#b2daff"/><rect x="169.5" y="204.5" width="3" height="3" fill="#b2daff"/><rect x="172.5" y="204.5" width="3" height="3" fill="#b2daff"/><rect x="175.5" y="204.5" width="3" height="3" fill="#b2daff"/><rect x="178.5" y="204.5" width="3" height="3" fill="#b2daff"/><rect x="145.5" y="207.5" width="3" height="3" fill="#b2daff"/><rect x="151.5" y="207.5" width="3" height="3" fill="#b2daff"/><rect x="154.5" y="207.5" width="3" height="3" fill="#b2daff"/><rect x="157.5" y="207.5" width="3" height="3" fill="#b2daff"/><rect x="160.5" y="207.5" width="3" height="3" fill="#b2daff"/><rect x="163.5" y="207.5" width="3" height="3" fill="#b2daff"/><rect x="172.5" y="207.5" width="3" height="3" fill="#b2daff"/><rect x="178.5" y="207.5" width="3" height="3" fill="#b2daff"/><rect x="118.5" y="210.5" width="3" height="3" fill="#b2daff"/><rect x="121.5" y="210.5" width="3" height="3" fill="#b2daff"/><rect x="124.5" y="210.5" width="3" height="3" fill="#b2daff"/><rect x="127.5" y="210.5" width="3" height="3" fill="#b2daff"/><rect x="130.5" y="210.5" width="3" height="3" fill="#b2daff"/><rect x="133.5" y="210.5" width="3" height="3" fill="#b2daff"/><rect x="136.5" y="210.5" width="3" height="3" fill="#b2daff"/><rect x="163.5" y="210.5" width="3" height="3" fill="#b2daff"/><rect x="169.5" y="210.5" width="3" height="3" fill="#b2daff"/><rect x="178.5" y="210.5" width="3" height="3" fill="#b2daff"/><rect x="118.5" y="213.5" width="3" height="3" fill="#b2daff"/><rect x="136.5" y="213.5" width="3" height="3" fill="#b2daff"/><rect x="145.5" y="213.5" width="3" height="3" fill="#b2daff"/><rect x="154.5" y="213.5" width="3" height="3" fill="#b2daff"/><rect x="169.5" y="213.5" width="3" height="3" fill="#b2daff"/><rect x="178.5" y="213.5" width="3" height="3" fill="#b2daff"/><rect x="118.5" y="216.5" width="3" height="3" fill="#b2daff"/><rect x="124.5" y="216.5" width="3" height="3" fill="#b2daff"/><rect x="127.5" y="216.5" width="3" height="3" fill="#b2daff"/><rect x="130.5" y="216.5" width="3" height="3" fill="#b2daff"/><rect x="136.5" y="216.5" width="3" height="3" fill="#b2daff"/><rect x="145.5" y="216.5" width="3" height="3" fill="#b2daff"/><rect x="148.5" y="216.5" width="3" height="3" fill="#b2daff"/><rect x="166.5" y="216.5" width="3" height="3" fill="#b2daff"/><rect x="169.5" y="216.5" width="3" height="3" fill="#b2daff"/><rect x="172.5" y="216.5" width="3" height="3" fill="#b2daff"/><rect x="175.5" y="216.5" width="3" height="3" fill="#b2daff"/><rect x="178.5" y="216.5" width="3" height="3" fill="#b2daff"/><rect x="118.5" y="219.5" width="3" height="3" fill="#b2daff"/><rect x="124.5" y="219.5" width="3" height="3" fill="#b2daff"/><rect x="127.5" y="219.5" width="3" height="3" fill="#b2daff"/><rect x="130.5" y="219.5" width="3" height="3" fill="#b2daff"/><rect x="136.5" y="219.5" width="3" height="3" fill="#b2daff"/><rect x="148.5" y="219.5" width="3" height="3" fill="#b2daff"/><rect x="157.5" y="219.5" width="3" height="3" fill="#b2daff"/><rect x="169.5" y="219.5" width="3" height="3" fill="#b2daff"/><rect x="172.5" y="219.5" width="3" height="3" fill="#b2daff"/><rect x="118.5" y="222.5" width="3" height="3" fill="#b2daff"/><rect x="124.5" y="222.5" width="3" height="3" fill="#b2daff"/><rect x="127.5" y="222.5" width="3" height="3" fill="#b2daff"/><rect x="130.5" y="222.5" width="3" height="3" fill="#b2daff"/><rect x="136.5" y="222.5" width="3" height="3" fill="#b2daff"/><rect x="148.5" y="222.5" width="3" height="3" fill="#b2daff"/><rect x="154.5" y="222.5" width="3" height="3" fill="#b2daff"/><rect x="157.5" y="222.5" width="3" height="3" fill="#b2daff"/><rect x="166.5" y="222.5" width="3" height="3" fill="#b2daff"/><rect x="169.5" y="222.5" width="3" height="3" fill="#b2daff"/><rect x="172.5" y="222.5" width="3" height="3" fill="#b2daff"/><rect x="118.5" y="225.5" width="3" height="3" fill="#b2daff"/><rect x="136.5" y="225.5" width="3" height="3" fill="#b2daff"/><rect x="148.5" y="225.5" width="3" height="3" fill="#b2daff"/><rect x="154.5" y="225.5" width="3" height="3" fill="#b2daff"/><rect x="157.5" y="225.5" width="3" height="3" fill="#b2daff"/><rect x="163.5" y="225.5" width="3" height="3" fill="#b2daff"/><rect x="172.5" y="225.5" width="3" height="3" fill="#b2daff"/><rect x="178.5" y="225.5" width="3" height="3" fill="#b2daff"/><rect x="118.5" y="228.5" width="3" height="3" fill="#b2daff"/><rect x="121.5" y="228.5" width="3" height="3" fill="#b2daff"/><rect x="124.5" y="228.5" width="3" height="3" fill="#b2daff"/><rect x="127.5" y="228.5" width="3" height="3" fill="#b2daff"/><rect x="130.5" y="228.5" width="3" height="3" fill="#b2daff"/><rect x="133.5" y="228.5" width="3" height="3" fill="#b2daff"/><rect x="136.5" y="228.5" width="3" height="3" fill="#b2daff"/><rect x="148.5" y="228.5" width="3" height="3" fill="#b2daff"/><rect x="154.5" y="228.5" width="3" height="3" fill="#b2daff"/><rect x="160.5" y="228.5" width="3" height="3" fill="#b2daff"/><rect x="166.5" y="228.5" width="3" height="3" fill="#b2daff"/><rect x="169.5" y="228.5" width="3" height="3" fill="#b2daff"/>

  <!-- Pearlescent top shimmer -->
  <ellipse cx="150" cy="90" rx="35" ry="8"
           fill="#e8f5ff" fill-opacity="0.2"/>

  <!-- Name / glyph label strip -->
  <text x="150" y="405" text-anchor="middle" font-family="ui-monospace, monospace"
        font-size="10" fill="#a2d2ff" fill-opacity="0.9">
    Dawnlight
  </text>
  <text x="150" y="422" text-anchor="middle" font-family="ui-monospace, monospace"
        font-size="8" fill="#93cbff" fill-opacity="0.7">
    JED.[config-payload]
  </text>
</svg>
